<svg width="161" height="22" viewBox="0 0 161 22" fill="none" xmlns="http://www.w3.org/2000/svg">
<path fill-rule="evenodd" clip-rule="evenodd" d="M0 11C0 5.05653 4.81813 0.238403 10.7616 0.238403H150.003C155.947 0.238403 160.765 5.05653 160.765 11C160.765 16.9435 155.947 21.7616 150.003 21.7616H10.7616C4.81813 21.7616 0 16.9435 0 11ZM63.819 15.6563C63.0649 15.6563 62.4751 15.5502 62.051 15.3355C61.6256 15.1221 61.3287 14.8027 61.1591 14.3746C60.9894 13.9479 60.9046 13.4204 60.9046 12.7895V9.22033C60.9046 8.19583 61.1325 7.44038 61.5898 6.9553C62.0457 6.47022 62.7892 6.22636 63.8204 6.22636H68.6142C69.3471 6.22636 69.9064 6.26612 70.2947 6.34696C70.6817 6.42648 70.8766 6.50998 70.8766 6.5948L70.5585 7.92281C70.3782 7.891 69.8441 7.85654 68.9575 7.81811C68.0708 7.781 66.7839 7.76244 65.0954 7.76244H64.2829C63.4334 7.76244 63.0093 8.14149 63.0093 8.8996V12.9817C63.0093 13.3448 63.102 13.6245 63.2876 13.822C63.4731 14.0194 63.8058 14.1175 64.2829 14.1175H64.9363C66.699 14.1175 68.0668 14.099 69.0383 14.0619C70.0098 14.0247 70.6128 13.985 70.8461 13.9413L71.4995 14.9976C71.4995 15.0506 71.412 15.1314 71.2371 15.2375C71.0621 15.3448 70.7401 15.4402 70.2735 15.5251C69.8057 15.6099 69.1324 15.6536 68.251 15.6536H63.823L63.819 15.6563ZM28.2997 15.6562V7.52514L28.1406 6.22894H35.1968C35.8768 6.22894 36.4095 6.32039 36.7979 6.50063C37.1849 6.68221 37.4725 6.91945 37.658 7.21235C37.8436 7.50658 37.9629 7.81804 38.0159 8.14938C38.0689 8.48072 38.0954 8.79483 38.0954 9.09436V10.0393C38.0954 10.2845 38.0583 10.5602 37.9841 10.8637C37.9099 11.1672 37.772 11.4614 37.5706 11.7437C37.3691 12.026 37.0762 12.262 36.6945 12.4475C36.3128 12.6344 35.8131 12.7272 35.1968 12.7272H33.572C32.9027 12.7272 32.2784 12.7113 31.7006 12.6794C31.1214 12.6476 30.6893 12.6211 30.403 12.5999V15.6575H28.301L28.2997 15.6562ZM30.4017 11.1897H34.7343C35.2127 11.1897 35.5414 11.0718 35.7217 10.8372C35.9019 10.6026 35.9921 10.3203 35.9921 9.98897V8.98038C35.9921 8.63843 35.9019 8.35083 35.7217 8.11624C35.5414 7.88166 35.2167 7.7637 34.7502 7.7637H30.4017V11.1897ZM13.1033 15.6561C12.3809 15.6561 11.8508 15.6243 11.5102 15.5607C11.1709 15.4971 10.9999 15.4215 10.9999 15.3367L11.6374 13.9438C11.8813 13.9862 12.4896 14.0259 13.4611 14.0644C14.4326 14.1015 15.7686 14.12 17.4677 14.12H17.7698C18.2258 14.12 18.5505 14.0379 18.7413 13.8722C18.9322 13.7065 19.0276 13.4269 19.0276 13.0319V12.7112C19.0276 12.3374 18.9507 12.071 18.797 11.9107C18.6433 11.7503 18.3 11.6708 17.7698 11.6708H14.0748C13.0025 11.6708 12.2219 11.4707 11.7328 11.0704C11.2438 10.6701 10.9999 10.0167 10.9999 9.10888V8.85308C10.9999 8.38391 11.0874 7.95184 11.2623 7.55688C11.4373 7.16193 11.7368 6.84517 12.1623 6.60395C12.5864 6.36406 13.1709 6.24346 13.9144 6.24346H18.247C18.9693 6.24346 19.5524 6.28057 19.9991 6.35611C20.4457 6.43033 20.6684 6.51118 20.6684 6.596L20.3503 7.94124C20.0746 7.90943 19.4477 7.87497 18.471 7.83653C17.4942 7.79943 16.1821 7.78087 14.536 7.78087L14.361 7.76497C13.872 7.76497 13.5433 7.86437 13.3736 8.06052C13.204 8.258 13.1125 8.50584 13.1033 8.80537V9.07707C13.1033 9.42961 13.2013 9.69336 13.3975 9.86963C13.5936 10.0459 13.921 10.1334 14.3769 10.1334H17.913C18.5929 10.1334 19.1721 10.2023 19.6492 10.3415C20.1277 10.4806 20.4935 10.7338 20.7479 11.1022C21.0024 11.4707 21.1296 12.0127 21.1296 12.7271V12.9829C21.1296 13.7834 20.9255 14.4289 20.516 14.9192C20.1064 15.4096 19.3987 15.6561 18.3901 15.6561H13.1033ZM47.54 6.24346L42.8734 15.6561H45.1981L46.2332 13.623H51.9362L52.8759 15.6561H55.3291L50.6784 6.24346H47.54ZM51.3477 12.0551H46.8097L49.0071 7.68544H49.1662L51.3477 12.0551ZM77.8682 6.24346V15.6561H86.5652C87.2663 15.6561 87.7607 15.6376 88.047 15.6005C88.3332 15.562 88.4764 15.5223 88.4764 15.4799L87.8389 14.1187H79.9702V11.574H85.9277V9.98891H79.9702V7.77954H87.7753V6.24346H77.8682ZM98.0494 15.6562L98.0335 7.76502H93.8918V6.22894H104.309V7.76502H100.151V15.6562H98.0494ZM110.68 6.24346V15.6561H112.782V6.24346H110.68ZM120.269 15.6563V7.52525L120.11 6.24496H122.531L126.131 12.6478L129.858 6.24496H132.008V15.6576H129.906V9.68691H129.731L129.109 11.0799L127.103 14.6981H125.176L123.169 11.0799L122.531 9.68691H122.372V15.6576H120.27L120.269 15.6563ZM139.335 6.24346V15.6561H148.032C148.733 15.6561 149.228 15.6376 149.514 15.6005C149.8 15.562 149.943 15.5223 149.943 15.4799L149.306 14.1187H141.437V11.574H147.395V9.98891H141.437V7.77954H149.242V6.24346H139.335Z" fill="url(#paint0_linear_19_262)"/>
<defs>
<linearGradient id="paint0_linear_19_262" x1="12.8968" y1="1.9488" x2="135.558" y2="103.173" gradientUnits="userSpaceOnUse">
<stop offset="0.114583" stop-color="#3B38D0"/>
<stop offset="0.515625" stop-color="#FB4D29"/>
<stop offset="1" stop-color="#FFDFA0"/>
</linearGradient>
</defs>
</svg>
